<?xml version="1.0" encoding="utf-8"?>
<!-- Generator: Adobe Illustrator 16.0.0, SVG Export Plug-In . SVG Version: 6.00 Build 0)  -->
<!DOCTYPE svg PUBLIC "-//W3C//DTD SVG 1.1//EN" "http://www.w3.org/Graphics/SVG/1.1/DTD/svg11.dtd">
<svg version="1.1" id="图层_1" xmlns="http://www.w3.org/2000/svg" xmlns:xlink="http://www.w3.org/1999/xlink" x="0px" y="0px"
	 width="13px" height="12px" viewBox="0 0 728.1 726.5" style="enable-background:new 0 0 728.1 726.5;" xml:space="preserve"
	>
<g>
	<g>
		<path style="fill:#4F5772;" d="M727.6,240.8c0-7.3,0.5-14.7-0.5-21.8c-4.1-29.9-25.4-43.1-52.9-31.3c-16,6.8-30.4,16.9-45.8,25.3
			c-18.1,9.9-30.4,23.1-25.5,45.4c4.5,20.5,19.5,27.2,38.9,27.9c3.8,0.1,7.5,2.9,11.3,4.5V562l-174,88.8
			C421.8,620.7,368,592,313.6,564.2c-91.6-46.9-60.4-46.4-149.2-0.2c-28.1,14.6-55.8,29.8-92.1,49.2c0-83.5,0.5-157.5-0.3-231.5
			c-0.3-32.5-2.5-62.6,36.4-78.8c19.6-8.1,22.3-32.8,11.8-48.7c-11.5-17.3-28.4-20.1-46.1-12.5c-15.9,6.9-30.3,17.1-45.9,25.1
			C7.8,277.1-0.1,293.2,0,316.1C0.6,431-0.2,545.9,0.5,660.8c0.3,48.7,23.3,61.1,67.8,37.7c47.7-24.9,95.4-49.9,141.9-76.8
			c20-11.6,35.6-12,56-0.6c59.7,33.2,121.1,63.3,181,96.2c22.9,12.5,42.1,12.2,65.1-0.3c58.8-31.9,118.3-62.4,178.5-91.5
			c27.2-13.2,37.7-31.4,37.3-61.7C726.8,456.1,727.6,348.5,727.6,240.8L727.6,240.8z M333.6,451.1c22.7,21.6,37.5,21.3,60.5-0.4
			c52-49.2,98.6-103.4,127.5-169.6c13.1-30.1,19.5-63.1,29-94.8c-3.9-94.3-66.9-168.9-159-184C303.7-12,217.9,40.2,190.2,125.4
			c-15.5,47.7-10.3,94.8,8.4,140.5C228.4,338.6,277.5,397.7,333.6,451.1L333.6,451.1z M368.9,74.6c62.5,2.7,111.2,58.1,103,120.9
			c-8.4,64-42.6,116.5-82.3,165.2c-13.7,16.9-33.9,15.7-50.4,2.1c-35.4-29.2-83.9-131.6-84.1-177.7
			C254.8,120.9,305.3,71.9,368.9,74.6L368.9,74.6z M368.9,74.6"/>
	</g>
</g>
</svg>
