<?xml version="1.0" encoding="utf-8"?>
<!-- Generator: Adobe Illustrator 16.0.0, SVG Export Plug-In . SVG Version: 6.00 Build 0)  -->
<!DOCTYPE svg PUBLIC "-//W3C//DTD SVG 1.1//EN" "http://www.w3.org/Graphics/SVG/1.1/DTD/svg11.dtd">
<svg version="1.1" id="图层_1" xmlns="http://www.w3.org/2000/svg" xmlns:xlink="http://www.w3.org/1999/xlink" x="0px" y="0px"
	 width="13px" height="11px" viewBox="0 0 500 500" style="enable-background:new 0 0 500 500;" xml:space="preserve">
<g>
	<g>
		<defs>
			<rect id="SVGID_1_" y="26.9" width="500" height="446.3"/>
		</defs>
		<clipPath id="SVGID_2_">
			<use xlink:href="#SVGID_1_"  style="overflow:visible;"/>
		</clipPath>
		<path style="clip-path:url(#SVGID_2_);fill:#4F5772;" d="M353.4,27.5c80.5,0,145.7,65.3,145.7,145.7c0,29.4-9.3,60.1-26.7,91.8
			c-15,27.3-35.7,54.9-61.2,82.8C372.5,390,326.5,428.9,280.9,462c-18.7,13.5-43.9,13.5-62.6,0c-19-13.8-37.6-28.2-55.6-43.3
			c-6.3-5.3-7.1-14.6-1.8-20.9c5.3-6.3,14.6-7.1,20.9-1.8c17.5,14.6,35.5,28.7,54,42c8.3,6,19.5,6,27.8,0
			c44.2-31.9,88.7-69.6,125.9-110.1c51.2-55.8,80.1-108.5,80.1-154.5c0-64.1-52-116-116-116c-36.5,0-70.2,17-92.1,45.4
			c-5.9,7.7-17.6,7.7-23.6,0c-21.8-28.4-55.5-45.4-92.1-45.4c-64.1,0-116,52-116,116c0,43.3,25.8,92.8,71.8,145.2
			c5.4,6.2,4.8,15.5-1.4,21c-6.2,5.4-15.5,4.8-21-1.4C28.8,280.7,0,225.3,0,173.3C0,92.8,65.3,27.5,145.7,27.5
			c39.7,0,76.9,16,103.9,43.5C276.6,43.6,313.7,27.5,353.4,27.5L353.4,27.5z M353.4,27.5"/>
	</g>
</g>
</svg>
