<?xml version="1.0" encoding="utf-8"?>
<!-- Generator: Adobe Illustrator 16.0.0, SVG Export Plug-In . SVG Version: 6.00 Build 0)  -->
<!DOCTYPE svg PUBLIC "-//W3C//DTD SVG 1.1//EN" "http://www.w3.org/Graphics/SVG/1.1/DTD/svg11.dtd">
<svg version="1.1" id="图层_1" xmlns="http://www.w3.org/2000/svg" xmlns:xlink="http://www.w3.org/1999/xlink" x="0px" y="0px"
	 width="13px" height="11px" viewBox="0 0 500 500" style="enable-background:new 0 0 500 500;" xml:space="preserve">
<g>
	<g>
		<path style="fill:#4F5772;" d="M468.5,458.2H31.2C13.5,458.2,0,444.7,0,427V73c0-17.7,13.5-31.2,31.2-31.2h154.1
			c8.3,0,16.7,3.1,21.9,9.4l33.3,33.3c6.2,6.2,13.5,9.4,21.9,9.4h206.1c17.7,0,31.2,13.5,31.2,31.2V427
			C499.8,444.7,486.2,458.2,468.5,458.2L468.5,458.2z M478.9,125.1c0-6.2-4.2-10.4-10.4-10.4H262.4c-13.5,0-27.1-5.2-36.4-15.6
			l-33.3-33.3c-2.1-2.1-5.2-3.1-7.3-3.1H31.2c-6.2,0-10.4,4.2-10.4,10.4v354c0,6.2,4.2,10.4,10.4,10.4h437.3
			c6.2,0,10.4-4.2,10.4-10.4V125.1z M263.4,379.1c-4.2,4.2-9.4,6.2-15.6,6.2c-5.2,0-11.5-2.1-15.6-6.2l-87.5-93.7
			c-12.5-13.5-3.1-34.4,15.6-34.4h47.9v-62.5c0-11.5,9.4-20.8,20.8-20.8h41.6c11.5,0,20.8,9.4,20.8,20.8V251h43.7
			c17.7,0,27.1,21.9,15.6,34.4L263.4,379.1z M270.7,270.8v-83.3h-41.6v83.3h-67.7l87.5,93.7l87.5-93.7H270.7z M270.7,270.8"/>
	</g>
</g>
</svg>
