<?xml version="1.0" encoding="utf-8"?>
<!-- Generator: Adobe Illustrator 16.0.0, SVG Export Plug-In . SVG Version: 6.00 Build 0)  -->
<!DOCTYPE svg PUBLIC "-//W3C//DTD SVG 1.1//EN" "http://www.w3.org/Graphics/SVG/1.1/DTD/svg11.dtd">
<svg version="1.1" id="图层_1" xmlns="http://www.w3.org/2000/svg" xmlns:xlink="http://www.w3.org/1999/xlink" x="0px" y="0px"
	 width="13px" height="11px" viewBox="0 0 819.2 647.9" style="enable-background:new 0 0 819.2 647.9;" xml:space="preserve"
	>
<g>
	<g>
		<path style="fill:#4F5772;" d="M546.2,510c-13.7,0-27.3-5.7-37.2-16.9c-25.4-28.9-61.6-45.4-99.4-45.4c-38.4,0-73.7,16-99.3,45.2
			c-18.6,21.1-50.4,22.8-71,3.6c-20.6-19.2-22.1-51.8-3.5-72.9c44.3-50.3,107.6-79.1,173.7-79.1c66,0,129.4,28.9,173.8,79.3
			c18.7,21.1,17.1,53.8-3.5,72.9C570.4,505.7,558.3,510,546.2,510L546.2,510z M657.7,380.8c-12.8,0-25.7-5-35.4-15
			c-56.9-58.2-132.4-90.2-212.6-90.2c-80.4,0-156,31.9-212.7,90c-19.7,20.2-51.5,20-71.1-0.2c-19.6-20.2-19.5-52.9,0.2-73.1
			c75.7-77.4,176.4-120,283.6-120c107,0,207.7,42.7,283.5,120.3c19.7,20.1,19.7,52.8,0.2,73.1C683.6,375.7,670.6,380.8,657.7,380.8
			L657.7,380.8z M769,251.8c-12.5,0-25-4.8-34.8-14.4C646.5,151,531.2,103.4,409.7,103.4c-121.8,0-237.1,47.5-324.6,133.9
			c-20,19.7-51.8,19.1-71.1-1.6c-19.2-20.6-18.5-53.3,1.4-73.1C121.7,57.8,261.7,0,409.6,0c147.6,0,287.6,57.8,394.1,162.8
			c20,19.8,20.7,52.5,1.5,73C795.3,246.5,782.1,251.8,769,251.8L769,251.8z M348.9,585.5c0,34.5,27.2,62.4,60.7,62.4
			c33.5,0,60.7-27.9,60.7-62.4c0-34.5-27.2-62.4-60.7-62.4C376.2,523.2,348.9,551,348.9,585.5L348.9,585.5z M348.9,585.5"/>
	</g>
</g>
</svg>
