<?xml version="1.0" encoding="utf-8"?>
<!-- Generator: Adobe Illustrator 16.0.0, SVG Export Plug-In . SVG Version: 6.00 Build 0)  -->
<!DOCTYPE svg PUBLIC "-//W3C//DTD SVG 1.1//EN" "http://www.w3.org/Graphics/SVG/1.1/DTD/svg11.dtd">
<svg version="1.1" id="图层_1" xmlns="http://www.w3.org/2000/svg" xmlns:xlink="http://www.w3.org/1999/xlink" x="0px" y="0px"
	 width="13px" height="11px" viewBox="0 0 819.2 634.9" style="enable-background:new 0 0 819.2 634.9;" xml:space="preserve"
	>
<g>
	<g>
		<path style="fill:#4F5772;" d="M742.4,634.9H76.8C35.8,634.9,0,599,0,558.1V76.8C0,35.8,35.8,0,76.8,0h122.9
			c25.6,0,46.1,5.1,66.6,20.5L373.8,87c10.2,5.1,25.6,10.2,41,10.2h327.7c41,0,76.8,35.8,76.8,76.8v389.1
			C819.2,604.2,783.4,634.9,742.4,634.9L742.4,634.9z M76.8,51.2c-15.4,0-25.6,10.2-25.6,25.6v486.4c0,15.4,10.2,25.6,25.6,25.6
			h665.6c15.4,0,25.6-10.2,25.6-25.6V169c0-15.4-10.2-25.6-25.6-25.6H414.7c-25.6,0-46.1-5.1-66.6-20.5L240.6,61.4
			c-10.2-10.2-25.6-10.2-41-10.2H76.8z M76.8,51.2"/>
	</g>
</g>
</svg>
