<?xml version="1.0" encoding="utf-8"?>
<!-- Generator: Adobe Illustrator 16.0.0, SVG Export Plug-In . SVG Version: 6.00 Build 0)  -->
<!DOCTYPE svg PUBLIC "-//W3C//DTD SVG 1.1//EN" "http://www.w3.org/Graphics/SVG/1.1/DTD/svg11.dtd">
<svg version="1.1" id="图层_1" xmlns="http://www.w3.org/2000/svg" xmlns:xlink="http://www.w3.org/1999/xlink" x="0px" y="0px"
	 width="13px" height="10px" viewBox="0 0 500 500" style="enable-background:new 0 0 500 500;" xml:space="preserve">
<g>
	<g>
		<path style="fill:#4F5772;" d="M213.7,64c-7.9-3.6-16.1-6.2-24.6-7.7c-4.8-0.9-9.7-1.5-14.5-1.6h-4.5c-4.9,0.1-9.9,0.6-14.7,1.6
			c-10.6,2-20.7,5.4-30,10.4c-29.7,16-46,44.7-46,83.3v4.3c0,3.7,0.2,8.4,0.5,13.6c0.7,9.6,2,18.8,4,27.3c3.8,16.7,9.9,29.7,18.8,39
			c1,1,2.5,2.9,3.9,5c1.7,2.6,2.6,4.7,2.8,5.6c0,1.6,0.1,1.2-0.8,2c-2.7,2.5-8.9,6.1-21.2,12.2c-63.7,31.3-85.1,49.1-85.3,79.6
			l-2,28.3c-0.9,12.2,8.3,22.8,20.5,23.7c1.7,0.1,26.5,0.2,61.2,0.3c-0.1-10.2,0.3-19.2,1.1-27.3c-18.4,0-36.9-0.1-55.3-0.1
			l1.6-23.5l0-1c0-15.8,15.6-28.9,70.1-55.7c29.3-14.4,37.1-21.7,37.1-38.9c0-1-0.1-2.1-0.2-3.1c-0.7-5.6-3.2-11.3-7.1-17.2
			c-2.1-3.2-4.4-6.2-7-9c-5.1-5.3-9.1-14-11.9-26.2c-1.7-7.6-2.8-15.4-3.4-23.2c-0.3-3.8-0.5-7.7-0.5-11.5V150
			c0-28.8,11-48.2,31.6-59.3c6.9-3.7,14.4-6.2,22.1-7.6c3.3-0.6,6.6-1,9.9-1.1h4.2c2.1,0,5.7,0.4,9.7,1.1c3.2,0.6,6.4,1.4,9.5,2.3
			C199,77.3,205.8,70,213.7,64L213.7,64z M402.3,292c-23.2-11.5-25.3-13.3-25.3-17.5c0.2-1.3,1.3-3.9,3.4-7c1.6-2.4,3.4-4.7,4.5-5.9
			c9.8-10.2,16.4-24.5,20.6-42.8c2.2-10,3.7-20.1,4.4-30.2c0.4-5.8,0.6-11.1,0.6-15.1V169c0-42.8-17.8-74.4-50.4-92
			c-10.3-5.5-21.5-9.4-33-11.5c-5.3-1-10.6-1.6-15.9-1.8h-5c-4.4,0-10,0.6-16.1,1.8c-11.5,2.1-22.7,5.9-33,11.5
			c-32.6,17.6-50.4,49.2-50.4,91.7v4.8c0,4,0.2,9.3,0.6,15.1c0.8,10.7,2.3,20.8,4.4,30.2c4.2,18.4,10.8,32.7,20.6,42.8
			c1.2,1.2,2.9,3.4,4.5,5.9c2,3.1,3.2,5.7,3.4,7c0,4.2-2.1,6-25.3,17.5c-70.5,34.8-93.9,54.3-94.2,87.6l-2.2,31.7
			c-0.9,12.8,8.7,23.9,21.4,24.8c6.7,0.5,334,0.5,339.7-0.1c12.7-1.4,21.8-12.9,20.4-25.6l-3.4-31.7
			C495.8,346,472.2,326.5,402.3,292L402.3,292z M482.8,380.1l13.6-0.7l-0.1-1l-13.6,0.7l-9.6,1H482.8z M469.2,380.5l3.1,28.5
			c-35.8,0.3-290.6,0.3-326.5,0l2-27.9c0-19.5,17.7-34.4,79-64.6c32.2-15.9,40.5-23.6,40.5-42c0-1.1-0.1-2.2-0.2-3.3
			c-0.8-5.9-3.5-12.2-7.6-18.5c-2.3-3.5-4.8-6.8-7.6-9.8c-5.9-6.1-10.5-16.1-13.7-30.1c-1.9-8.6-3.2-17.4-3.8-26.1
			c-0.3-4.3-0.5-8.7-0.5-13v-4.9c0-32.7,12.5-55,36.1-67.7c7.9-4.2,16.3-7.1,25.1-8.7c4.6-0.9,8.6-1.3,11.3-1.3h4.7
			c2.5,0,6.5,0.5,11.1,1.3c9,1.7,17.4,4.5,25.1,8.7c23.5,12.7,36.1,34.9,36.1,67.7v4.9c0,3.3-0.2,7.9-0.5,13
			c-0.7,9.4-2,18.2-3.8,26.2c-3.2,14-7.8,23.9-13.7,30.1c-2.8,3-5.4,6.3-7.6,9.8c-4.1,6.3-6.8,12.6-7.6,18.5
			c-0.1,1.1-0.2,2.2-0.2,3.3c0,18.4,8.3,26.2,40.5,42c61.3,30.2,79,45.1,79,63.7h3.9L469.2,380.5L469.2,380.5z M469.2,380.5"/>
	</g>
</g>
</svg>
