<?xml version="1.0" encoding="utf-8"?>
<!-- Generator: Adobe Illustrator 16.0.0, SVG Export Plug-In . SVG Version: 6.00 Build 0)  -->
<!DOCTYPE svg PUBLIC "-//W3C//DTD SVG 1.1//EN" "http://www.w3.org/Graphics/SVG/1.1/DTD/svg11.dtd">
<svg version="1.1" id="图层_1" xmlns="http://www.w3.org/2000/svg" xmlns:xlink="http://www.w3.org/1999/xlink" x="0px" y="0px"
	 width="13px" height="13px" viewBox="0 0 820 820.7" style="enable-background:new 0 0 820 820.7;" xml:space="preserve">
<g>
	<g>
		<defs>
			<rect id="SVGID_1_" x="0.1" width="819.8" height="820.7"/>
		</defs>
		<clipPath id="SVGID_2_">
			<use xlink:href="#SVGID_1_"  style="overflow:visible;"/>
		</clipPath>
		<path style="clip-path:url(#SVGID_2_);fill:#4F5772;" d="M409.6,819.7C183.8,819.7,0,636,0,410.1C0,184.3,183.8,0.5,409.6,0.5
			c17.4,0,31.5,14.1,31.5,31.5c0,17.4-14.1,31.5-31.5,31.5C218.3,63.7,63.2,218.8,63,410.1c0,191.1,155.5,346.6,346.6,346.6
			c191.1,0,346.6-155.5,346.6-346.6c0-17.4,14.1-31.5,31.5-31.5c17.4,0,31.5,14.1,31.5,31.5C819.2,636,635.4,819.7,409.6,819.7
			L409.6,819.7z M409.6,819.7"/>
	</g>
	<path style="fill:#4F5772;" d="M409,126.6c-8.4,0-16.4,3.3-22.3,9.2c-5.9,5.9-9.2,13.9-9.2,22.3v252.1c0,17.4,14.1,31.5,31.5,31.5
		c17.4,0,31.5-14.1,31.5-31.5V158.1C440.5,140.7,426.4,126.6,409,126.6L409,126.6z M409,126.6"/>
	<path style="fill:#4F5772;" d="M598,378.6H409c-17.4,0-31.5,14.1-31.5,31.5c0,17.4,14.1,31.5,31.5,31.5h189
		c17.4,0,31.5-14.1,31.5-31.5C629.5,392.7,615.4,378.6,598,378.6L598,378.6z M598,378.6"/>
</g>
</svg>
