<?xml version="1.0" encoding="utf-8"?>
<!-- Generator: Adobe Illustrator 16.0.0, SVG Export Plug-In . SVG Version: 6.00 Build 0)  -->
<!DOCTYPE svg PUBLIC "-//W3C//DTD SVG 1.1//EN" "http://www.w3.org/Graphics/SVG/1.1/DTD/svg11.dtd">
<svg version="1.1" id="图层_1" xmlns="http://www.w3.org/2000/svg" xmlns:xlink="http://www.w3.org/1999/xlink" x="0px" y="0px"
	 width="20px" height="17px" viewBox="0 0 731.8 636.1" style="enable-background:new 0 0 731.8 636.1;" xml:space="preserve"
	>
<g>
	<g>
		<path style="fill:#E6E6E6;" d="M34.7,248.9h662.4c19.2,0,34.7-15.5,34.7-34.7c0-10.6-4.8-20.6-13.2-27.2c-2.1-2.7-4.6-5-7.4-7
			L463.8,6.3c-10.1-7.2-23.3-8.4-34.6-3.1c-11.3,5.2-18.9,16.1-20,28.4c-1.1,12.4,4.5,24.4,14.7,31.5l165.8,116.4H34.7
			C15.5,179.5,0,195,0,214.2C0,233.3,15.5,248.9,34.7,248.9L34.7,248.9z M697.1,387.3H34.7c-9.2,0-18,3.7-24.5,10.2
			C3.7,404,0,412.8,0,422c0,10.6,4.8,20.6,13.2,27.2c2.1,2.6,4.5,5,7.4,7L268,629.8c7.5,5.3,16.8,7.4,25.9,5.8
			c9.1-1.6,17.1-6.7,22.4-14.3c11-15.7,7.2-37.3-8.5-48.3L142,456.7h555.1c19.2,0,34.7-15.5,34.7-34.7
			C731.8,402.8,716.2,387.3,697.1,387.3L697.1,387.3z M697.1,387.3"/>
	</g>
</g>
</svg>
