<?xml version="1.0" encoding="utf-8"?>
<!-- Generator: Adobe Illustrator 16.0.0, SVG Export Plug-In . SVG Version: 6.00 Build 0)  -->
<!DOCTYPE svg PUBLIC "-//W3C//DTD SVG 1.1//EN" "http://www.w3.org/Graphics/SVG/1.1/DTD/svg11.dtd">
<svg version="1.1" id="图层_1" xmlns="http://www.w3.org/2000/svg" xmlns:xlink="http://www.w3.org/1999/xlink" x="0px" y="0px"
	 width="13px" height="13px" viewBox="0 0 711.9 710.7" style="enable-background:new 0 0 711.9 710.7;" xml:space="preserve"
	>
<g>
	<g>
		<path style="fill:#4F5772;" d="M286,0c-48.3,0-95.6,9.1-141.7,35c2.8,4.9,0,9.6-0.6,14.8c-2,17.8,16.4,31.9,35,50.4
			c35.6,35.6,77,75.6,105.6,107.9c-25.5,24.7-51,52.6-76.5,75.3c-33.1-32.1-71.7-72.8-105.6-106.7c-12.3-12.3-23.8-27.8-35.6-33.2
			c-10.7-4.9-20.5,1.3-30.8,0C4.9,201.3-4.6,256.6,2,314.9c5.9,52,26.8,105.6,71.2,155.4c45.4,50.9,101.7,76.6,154.2,86.6
			c53,10.1,102.3,6.4,156-12.5c30,30.3,58.4,57.2,88.4,87.2c28.2,28.2,54.1,61,87.2,72.9c46.3,16.8,117,1.1,144.1-62.3
			c7.4-17.4,10.3-38.7,8.3-58.1c-1.5-14.8-7.2-37.1-20-52.8c0,0,0,0,0,0c-6.5-9.5-44.3-46-44.3-46l0,0c-14.1-14-29.5-28.2-44.8-43.5
			c-11.9-11.9-26.1-26.1-40.3-40.3c-13.9-13.9-27.5-32.3-40.9-38.5c-24-11.1-50.2,17.4-39.7,39.7c6.4,13.7,24.7,27,38.5,40.9
			c27.4,27.4,56.3,55.1,83,81.8c1.4,1.3,2.7,2.7,4,4.1c0,0,0,0,0,0c4.7,4.8,9.2,9.7,13.7,14.2c12,12.7,28,30.2,30.5,36.4
			c0.1,0.1,0.1,0.3,0.2,0.4c0,0,0,0.1,0,0.1c0,0,0,0,0,0c0.1,0.2,0.1,0.4,0.2,0.6c14.4,46.5-40.4,89.2-81.8,64
			c-8.9-5.4-14.5-14.5-23.1-23.1C499,574.7,440.3,518.4,395.2,472c-77.7,42.2-165.6,46.6-243.7-8.9c-46.4-33-71-77.7-83.6-118
			c-13-41.3-13.5-83.1-2.4-121c32.2,32.2,65.5,65.5,98.4,98.4c11.4,11.4,20.7,25.2,32,30.8c21.5,10.7,38-10.8,60.5-33.2
			c11.8-11.8,22.7-22.7,34.4-34.4c17-17,58.5-51.1,64.6-69.4c6.3-18.7-11.1-33.6-29.1-51.6C291.2,129.7,259,97.2,226.7,64
			c63.3-14.5,134.4-8,198.1,45.1c60.6,50.5,81.5,119.5,80.1,172.6c-0.2,7.8-2.8,16.1,0,23.7c10.5,22.4,39.5,28.3,54.6,5.9
			c5.3-7.9,4.1-24.4,4.1-35c0-59.1-19.7-120.6-66.4-176.7C433.8,23.5,352.5,0,286,0L286,0z M286,0"/>
	</g>
</g>
</svg>
