<?xml version="1.0" standalone="no"?><!DOCTYPE svg PUBLIC "-//W3C//DTD SVG 1.1//EN" "http://www.w3.org/Graphics/SVG/1.1/DTD/svg11.dtd"><svg class="icon" width="14px" height="14px" viewBox="0 0 1024 1024" version="1.1" xmlns="http://www.w3.org/2000/svg" fill="#fff"><path d="M847.995 68.228H181.297c-60.654 0-110 49.346-110 110v670.066c0 60.654 49.346 110 110 110h266.79c16.568 0 30-13.432 30-30s-13.432-30-30-30h-266.79c-27.57 0-50-22.43-50-50V178.228c0-27.57 22.43-50 50-50h666.698c27.57 0 50 22.43 50 50v269.981c0 16.569 13.432 30 30 30s30-13.431 30-30V178.228c0-60.655-49.346-110-110-110z"  /><path d="M758.533 716.108c46.018-55.401 73.696-126.581 73.696-204.23 0-176.645-143.199-319.843-319.843-319.843S192.543 335.233 192.543 511.877 335.742 831.72 512.386 831.72c77.39 0 148.357-27.488 203.679-73.23l185.437 185.437c5.857 5.858 13.535 8.787 21.213 8.787s15.355-2.929 21.213-8.787c11.716-11.716 11.716-30.71 0-42.426L758.533 716.108z m-62.41-20.494c-23.883 23.883-51.678 42.627-82.613 55.711-31.996 13.533-66.019 20.395-101.124 20.395s-69.128-6.862-101.124-20.395c-30.935-13.084-58.73-31.828-82.613-55.711-23.883-23.883-42.627-51.678-55.711-82.613-13.533-31.996-20.395-66.019-20.395-101.124 0-35.105 6.862-69.128 20.395-101.124 13.084-30.935 31.828-58.73 55.711-82.613 23.883-23.883 51.678-42.627 82.613-55.711 31.996-13.533 66.019-20.395 101.124-20.395s69.128 6.862 101.124 20.395c30.935 13.084 58.73 31.828 82.613 55.711 23.883 23.883 42.627 51.678 55.711 82.613 13.533 31.996 20.395 66.019 20.395 101.124 0 35.105-6.862 69.128-20.395 101.124-13.084 30.935-31.828 58.73-55.711 82.613z"  /><path d="M713.62 481.855c-16.568 0-30 13.432-30 30 0 92.165-74.982 167.147-167.147 167.147-16.568 0-30 13.432-30 30s13.432 30 30 30c60.674 0 117.715-23.628 160.617-66.53s66.53-99.943 66.53-160.617c0-16.568-13.432-30-30-30z"  /></svg>