<?xml version="1.0" encoding="utf-8"?>
<!-- Generator: Adobe Illustrator 22.1.0, SVG Export Plug-In . SVG Version: 6.00 Build 0)  -->
<svg version="1.1" id="图层_1" xmlns="http://www.w3.org/2000/svg" xmlns:xlink="http://www.w3.org/1999/xlink" x="0px" y="0px"
	 viewBox="0 0 1000 1000" style="enable-background:new 0 0 1000 1000;" xml:space="preserve">
<style type="text/css">
	.st0{clip-path:url(#SVGID_2_);}
</style>
<g>
	<g>
		<defs>
			<rect id="SVGID_1_" x="38" y="90" width="14px" height="14px" fill="#6b6b6b"/>
		</defs>
		<clipPath id="SVGID_2_">
			<use xlink:href="#SVGID_1_"  style="overflow:visible;"/>
		</clipPath>
		<path class="st0" d="M806.7,667.1V500.2c-18.3-0.6-33.8,0.1-50.4-1.2c0,108.1-0.9,57.1-0.9,165.3v73.2c0,13.1,1.1,27.8-1.2,39.2
			c-2.9,13.9-7.2,26-13.5,36.4c-12.4,20.2-31.6,35.6-57.2,42.6c-11.6,3.2-27,2.4-41.8,2.4H207.2c-13.3,0-28.8,1.3-40.3-1.2
			c-16.9-3.7-30.3-10.6-41.8-19.6c-16.9-13.2-28.6-33.6-34.1-58.2c-2.5-11.6-1.5-26.7-1.5-40.4V266.3c0-14.2-1.4-30.6,1.2-42.9
			c4.1-19.9,11.9-34.8,22.4-48.1c13.3-16.7,33.2-27.5,58.7-32.2c8.6-0.2,17.3-0.4,25.8-0.6h354.1c1.2-11.2,2.4-22.5,3.7-33.7
			c1-5.9,2-11.6,3-17.5H256.8c-34.1,0-77.5-3.5-105.7,3.6c-32.3,8.2-59.5,25.1-77.5,47.8c-15.1,18.9-26.5,40.1-32.8,68
			c-3.5,15.7-2.7,35.4-2.7,54.6v472.8c0,16.8-0.9,34.5,2.1,48.7c7.9,37.3,24.8,68.2,50.1,88.3c18.9,14.9,39.3,26,67.3,32.2
			c15,3.3,34.4,2.1,52.3,2.1h424.6c24.7,0,48.2,0.2,66.7-5.5c35.9-11.1,63.6-33.1,81.8-61.9c10.5-16.6,17.2-35.3,21.8-57.9
			c2.7-13.3,1.8-29.3,1.8-44.8C806.7,715.3,806.7,691.2,806.7,667.1L806.7,667.1z M525.2,654.2H286.6c-9.3,0-20.3-0.9-27,1.7
			c-12.1,4.7-21.4,21.6-12.3,35.7c4.4,7,10.3,8,18.7,11.4h298.4c7.4,0,15.8,0.6,21.2-1.5c6.7-2.6,11.4-7.4,14.1-13.7
			c1.1-2.6,2.8-6.8,2.1-10.8C596.8,646.7,560.4,654.2,525.2,654.2L525.2,654.2z M601.8,522.3c-3.3-20.9-16.7-23.5-41.7-23.5H286.3
			c-9.3,0-20.3-0.9-27,1.8c-11.5,4.6-21.1,21.9-12.2,36.2c4.7,7.7,10.6,8.7,19.7,12.4h257.9c30,0,65.5,6.3,74.8-15
			C600.6,531.2,602.5,526.9,601.8,522.3L601.8,522.3z M934.5,121.8c-3.8,1.6-7.6,1.5-10.8,3.4c-4.6,2.9-8.2,7.6-11.9,11.5
			l-20.9,21.8c-18.9,19.7-37.8,39.4-56.7,59.1c-69.7,72.6-88.3,94.1-158,166.8h-0.6c-36.9-38.4-73.8-77-110.8-115.4
			c-8.6-9-19.6-25.9-37.9-19.3c-4.8,1.7-9.1,4.2-11.9,8.1c-16.7,22.5,8.2,41.5,19.1,52.9c32.1,33.3,64.1,66.6,96.1,99.9
			c10,10.4,27.4,34.3,42.7,37c14.7,2.6,22.2-9.5,28.6-16.1l57.9-60.3c82.4-85.7,113.5-120.2,195.9-205.9
			C969.2,146.7,957.5,121.6,934.5,121.8L934.5,121.8z M439.3,383.4c0,0-17.8-27-21.4-38.5H280.6c-6.4,0-14.6-1.1-20.1,0.6
			c-11.7,3.7-22.8,21.7-14.2,37.9c4.9,9.5,9.4,9.2,19,13.4c78.1-0.1,182.9-0.3,182.9-0.3s0.8,0.2,0.6,0
			C446.9,394.9,439.3,383.4,439.3,383.4L439.3,383.4z M439.3,383.4"/>
	</g>
</g>
</svg>
