<?xml version="1.0" encoding="utf-8"?>
<!-- Generator: Adobe Illustrator 22.1.0, SVG Export Plug-In . SVG Version: 6.00 Build 0)  -->
<svg version="1.1" id="图层_1" xmlns="http://www.w3.org/2000/svg" xmlns:xlink="http://www.w3.org/1999/xlink" x="0px" y="0px"
	 viewBox="0 0 1000 1000" style="enable-background:new 0 0 1000 1000;" xml:space="preserve">
<style type="text/css">
	.st0{clip-path:url(#SVGID_2_);}
</style>
<g>
	<g>
		<defs>
			<rect id="SVGID_1_" x="156" y="142" width="686.9" height="717.8" fill="#6b6b6b"/>
		</defs>
		<clipPath id="SVGID_2_">
			<use xlink:href="#SVGID_1_"  style="overflow:visible;"/>
		</clipPath>
		<path class="st0" d="M499,858.9c-46.3,0-91.3-8.7-133.6-26c-40.9-16.6-77.5-40.4-109.1-70.8c-31.5-30.3-56.2-65.7-73.5-105
			c-17.9-40.7-27-84-27-128.6c0-53.4,13.6-106.4,39.3-153.3c24.8-45.3,60.9-85.2,104.4-115.1c12.1-8.3,28.8-5.6,37.5,6
			c8.6,11.6,5.9,27.7-6.2,36c-36.7,25.4-67.2,59-88.1,97.3c-22,40.1-33.1,83.6-33.1,129.2c0,74.4,30.1,144.5,84.8,197.1
			c54.7,52.7,127.3,81.6,204.6,81.6c77.3,0,150-29,204.7-81.6c54.7-52.6,84.8-122.6,84.8-197.1c0-45.6-11.1-89.1-33.1-129.2
			c-20.9-38.3-51.4-71.9-88.1-97.2c-12-8.3-14.8-24.4-6.2-36s25.4-14.3,37.4-6c43.5,30,79.6,69.8,104.4,115.1
			c25.7,46.9,39.3,99.9,39.3,153.3c0,44.6-9.1,87.9-27,128.6c-17.3,39.3-42,74.7-73.5,105c-31.5,30.3-68.2,54.1-109.1,70.8
			C590.2,850.2,545.3,858.9,499,858.9L499,858.9z M507.1,500.4c-14.8,0-26.8-11.5-26.8-25.8v-306c0-14.2,12-25.8,26.8-25.8
			c14.8,0,26.9,11.6,26.9,25.8v306C533.9,488.9,521.9,500.4,507.1,500.4L507.1,500.4z M507.1,500.4"/>
	</g>
</g>
</svg>
