<?xml version="1.0" standalone="no"?><!DOCTYPE svg PUBLIC "-//W3C//DTD SVG 1.1//EN" "http://www.w3.org/Graphics/SVG/1.1/DTD/svg11.dtd"><svg class="icon" width="14px" height="14px" viewBox="0 0 1024 1024" version="1.1" xmlns="http://www.w3.org/2000/svg" fill="#fff"><path d="M160 336c-19.2 0-32 12.8-32 32v416c0 19.2 12.8 32 32 32h608c19.2 0 32-12.8 32-32v-416c0-19.2-12.8-32-32-32H160z m0-64h608c54.4 0 96 41.6 96 96v416c0 54.4-41.6 96-96 96H160c-54.4 0-96-41.6-96-96v-416c0-54.4 41.6-96 96-96z m96-64c-19.2 0-32-12.8-32-32s12.8-32 32-32h640c54.4 0 96 41.6 96 96v480c0 19.2-12.8 32-32 32s-32-12.8-32-32v-480c0-19.2-12.8-32-32-32H256z m160 358.4l-80-80c-12.8-12.8-12.8-32 0-44.8 12.8-12.8 32-12.8 44.8 0l67.2 67.2 67.2-67.2c12.8-12.8 32-12.8 44.8 0 12.8 12.8 12.8 32 0 44.8L480 566.4v25.6h64c19.2 0 32 12.8 32 32s-12.8 32-32 32h-64v64c0 19.2-12.8 32-32 32s-32-12.8-32-32v-64h-64c-19.2 0-32-12.8-32-32s12.8-32 32-32h64v-25.6z" /></svg>