<?xml version="1.0" standalone="no"?><!DOCTYPE svg PUBLIC "-//W3C//DTD SVG 1.1//EN" "http://www.w3.org/Graphics/SVG/1.1/DTD/svg11.dtd"><svg class="icon" width="14px" height="14px" viewBox="0 0 1024 1024" version="1.1" xmlns="http://www.w3.org/2000/svg" fill="#a8adaf"><path d="M924.8 336.939c-22.592-53.376-54.848-101.248-96.064-142.4-41.152-41.216-89.024-73.408-142.4-96.064-55.232-23.296-113.92-35.2-174.336-35.2s-119.104 11.904-174.4 35.2c-53.376 22.656-101.248 54.848-142.336 96.064-41.216 41.152-73.472 89.024-96.064 142.4-23.296 55.232-35.2 113.92-35.2 174.336s11.904 119.104 35.2 174.4c22.656 53.376 54.848 101.248 96.064 142.464 41.152 41.152 89.024 73.408 142.4 96 55.232 23.296 113.92 35.2 174.4 35.2s119.104-11.904 174.4-35.2c53.376-22.592 101.248-54.848 142.4-96 41.216-41.216 73.472-89.088 96.064-142.464 23.168-55.232 35.072-113.92 35.072-174.4s-11.904-119.104-35.2-174.336v0zM875.84 665.003c-19.968 46.976-48.448 89.28-84.608 125.504-36.224 36.16-78.592 64.704-125.504 84.608-48.704 20.544-100.416 30.976-153.728 30.976s-105.024-10.432-153.664-30.976c-46.912-19.968-89.28-48.448-125.504-84.608-36.16-36.224-64.704-78.592-84.608-125.504-20.608-48.704-31.040-100.416-31.040-153.728s10.432-105.024 30.976-153.664c19.968-46.912 48.448-89.28 84.672-125.504 36.224-36.16 78.592-64.704 125.504-84.608 48.64-20.608 100.352-31.040 153.664-31.040s105.024 10.432 153.664 30.976c46.912 19.968 89.28 48.448 125.504 84.608 36.16 36.224 64.704 78.592 84.608 125.504 20.544 48.704 30.976 100.352 30.976 153.664s-10.368 105.088-30.912 153.792v0zM875.84 665.003zM787.136 488.555h-95.168l-34.944-111.040c-1.664-6.336-8.32-10.176-14.656-8.448l-20.416 0.256c-6.208-1.664-11.072 3.52-12.736 9.664l-50.816 244.032-68.8-339.712c-1.6-6.208-8-9.92-14.144-8.192 0 0-17.344 0.32-25.472 0.32s-10.816 8.192-10.816 8.192l-51.328 268.416-18.304-56.896c-1.728-6.464-7.808-7.296-14.912-6.976l-117.76 0.32c-6.656 0-11.968 5.376-11.968 12.032v23.936c0 6.656 5.312 11.968 11.968 11.968h94.72l35.072 109.44c1.728 6.4 8.448 10.176 14.912 8.448l18.624-0.256c6.272 1.664 13.568-3.52 15.232-9.664l52.544-247.296 69.376 342.336c1.664 6.208 8 9.856 14.208 8.192 0 0 12.672-0.192 20.096-0.192 7.488 0 8.64-13.888 8.64-13.888l55.872-262.464 17.792 56.768c1.728 6.4 8.32 10.112 14.656 8.448l118.4 0.192c6.656 0 11.968-5.312 11.968-11.968v-24.064c0.064-6.592-5.248-11.904-11.84-11.904v0zM787.136 488.555z" /></svg>