<?xml version="1.0" encoding="utf-8"?>
<!-- Generator: Adobe Illustrator 22.1.0, SVG Export Plug-In . SVG Version: 6.00 Build 0)  -->
<svg version="1.1" id="图层_1" xmlns="http://www.w3.org/2000/svg" xmlns:xlink="http://www.w3.org/1999/xlink" x="0px" y="0px"
	 viewBox="0 0 1000 1000" style="enable-background:new 0 0 1000 1000;" xml:space="preserve">
<style type="text/css">
	.st0{clip-path:url(#SVGID_2_);}
</style>
<g>
	<rect x="406" y="872.5" width="186.2" height="37.2"/>
	<g>
		<defs>
			<rect id="SVGID_1_" x="183" y="90" width="6329" height="820.7" fill="#6b6b6b"/>
		</defs>
		<clipPath id="SVGID_2_">
			<use xlink:href="#SVGID_1_"  style="overflow:visible;"/>
		</clipPath>
		<path class="st0" d="M323.2,421h-2.8c-7.4-0.8-14.2-4.4-18.9-10.2c-4.7-5.8-6.9-13.2-6.1-20.5c10.1-96.2,86.1-172.2,182.3-182.3
			c10-1,19.7,3.3,25.6,11.5c5.9,8.1,7,18.8,2.9,27.9c-4.1,9.2-12.8,15.4-22.7,16.5c-70.1,7-125.7,62.1-133.3,132.2
			C348.7,409.9,337.2,420.6,323.2,421L323.2,421z M323.2,421"/>
		<path class="st0" d="M499.1,146.4c109.3,0.3,206.7,68.7,244.1,171.4c37.4,102.7,6.8,217.7-76.6,288.3c-35.1,29.8-59,70.5-68,115.6
			l-12.3,61.4c-1.8,8.8-9.6,15.1-18.6,14.9h-138c-9,0.2-16.8-6.1-18.6-14.9L399,721.7c-9.3-45.3-33.6-86.3-68.9-116.2
			c-79-67.3-110.7-175-80.5-274.3c30.2-99.3,116.4-171.2,219.5-183.1C479.1,146.9,489.1,146.4,499.1,146.4 M499.1,90.5
			c-12.1,0-24.1,0.7-36.1,2C337.9,107.1,233.3,194.5,196.7,315c-36.6,120.5,1.7,251.3,97.7,333c25.9,21.7,43.6,51.6,50.3,84.7
			l12.3,61.4c7,34.8,37.5,59.8,73,59.8h138.5c35.5,0,66.1-25.1,73-59.9l12.3-61.4c6.6-32.6,23.9-62,49.3-83.4
			c101.6-85.7,138.9-225.7,93.4-350.6C750.8,173.6,632.1,90.6,499.1,90.5L499.1,90.5z M499.1,90.5"/>
	</g>
</g>
</svg>
