<?xml version="1.0" encoding="utf-8"?>
<!-- Generator: Adobe Illustrator 22.1.0, SVG Export Plug-In . SVG Version: 6.00 Build 0)  -->
<svg version="1.1" id="图层_1" xmlns="http://www.w3.org/2000/svg" xmlns:xlink="http://www.w3.org/1999/xlink" x="0px" y="0px"
	 viewBox="0 0 1000 1000" style="enable-background:new 0 0 1000 1000;" xml:space="preserve">
<style type="text/css">
	.st0{clip-path:url(#SVGID_2_);}
</style>
<g>
	<g>
		<defs>
			<rect id="SVGID_1_" x="192" y="142" width="614.9" height="717.8" fill="#6b6b6b"/>
		</defs>
		<clipPath id="SVGID_2_">
			<use xlink:href="#SVGID_1_"  style="overflow:visible;"/>
		</clipPath>
		<path class="st0" d="M524.7,679.7c0,14.1-11.5,25.6-25.6,25.6c-14.1,0-25.6-11.5-25.6-25.6V577.3c0-14.1,11.5-25.6,25.6-25.6
			c14.1,0,25.6,11.5,25.6,25.6V679.7z M524.7,679.7"/>
		<path class="st0" d="M755.1,398.1h-512c-28.2,0-51.2,23-51.2,51.2v307.2h51.2V474.9c0-14.1,11.5-25.6,25.6-25.6h460.8
			c14.1,0,25.6,11.5,25.6,25.6v281.6h51.2V449.3C806.3,421.1,783.2,398.1,755.1,398.1L755.1,398.1z M755.1,398.1"/>
		<path class="st0" d="M755.1,719.1v37.4c0,28.2-23,51.2-51.2,51.2H294.3c-28.2,0-51.2-23-51.2-51.2v-37.4
			c-30.5,17.8-51.2-0.3-51.2,37.4c0,56.3,46.1,102.4,102.4,102.4h409.6c56.3,0,102.4-46.1,102.4-102.4
			C806.3,718.8,785.6,736.9,755.1,719.1L755.1,719.1z M755.1,719.1"/>
	</g>
	<path d="M499.1,142.1c-112.6,0-204.8,92.2-204.8,204.8v102.4h51.2V346.9c0-84.5,69.1-153.6,153.6-153.6
		c84.5,0,153.6,69.1,153.6,153.6v102.4h51.2V346.9C703.9,234.2,611.7,142.1,499.1,142.1L499.1,142.1z M499.1,142.1"/>
</g>
</svg>
