<svg xmlns="http://www.w3.org/2000/svg" xmlns:xlink="http://www.w3.org/1999/xlink" width="22" height="22" viewBox="0 0 22 22">
  <metadata><?xpacket begin="﻿" id="W5M0MpCehiHzreSzNTczkc9d"?>
<x:xmpmeta xmlns:x="adobe:ns:meta/" x:xmptk="Adobe XMP Core 5.6-c138 79.159824, 2016/09/14-01:09:01        ">
   <rdf:RDF xmlns:rdf="http://www.w3.org/1999/02/22-rdf-syntax-ns#">
      <rdf:Description rdf:about=""/>
   </rdf:RDF>
</x:xmpmeta>
<?xpacket end="w"?></metadata>
<defs>
    <style>
      .cls-1 {
        fill: #6cabff;
        fill-rule: evenodd;
        filter: url(#filter);
      }
    </style>
    <filter id="filter" x="934" y="411" width="22" height="22" filterUnits="userSpaceOnUse">
      <feFlood result="flood" flood-color="#ff6870"/>
      <feComposite result="composite" operator="in" in2="SourceGraphic"/>
      <feBlend result="blend" in2="SourceGraphic"/>
    </filter>
  </defs>
  <path id="问号红" class="cls-1" d="M945,425.553a1.582,1.582,0,1,0,1.12.463,1.606,1.606,0,0,0-1.12-.463h0Zm0,0-0.017-9.97a3.518,3.518,0,0,0-2.59.98,3.607,3.607,0,0,0-1.063,2.387c-0.021.83,1.733,0.657,1.8,0.248a3.015,3.015,0,0,1,.691-1.454,1.743,1.743,0,0,1,1.249-.477,1.664,1.664,0,0,1,1.233.457,1.538,1.538,0,0,1,.2,1.948,9.086,9.086,0,0,1-1.024,1.028,4.742,4.742,0,0,0-1.143,1.412,3.885,3.885,0,0,0-.286,1.6c0,0.061,0,.237.007,0.525h1.779a3.475,3.475,0,0,1,.136-1.263,3.243,3.243,0,0,1,.768-0.934,8.672,8.672,0,0,0,1.563-1.772,2.786,2.786,0,0,0,.365-1.381,3.163,3.163,0,0,0-1-2.312,3.638,3.638,0,0,0-2.684-.993h0Zm0,0M945,411a11,11,0,1,0,11,11,11.014,11.014,0,0,0-11-11h0Zm-0.007,20.6a9.615,9.615,0,1,1,9.618-9.614,9.626,9.626,0,0,1-9.618,9.614h0Zm0,0" transform="translate(-934 -411)"/>
</svg>