<svg xmlns="http://www.w3.org/2000/svg" xmlns:xlink="http://www.w3.org/1999/xlink" width="22" height="22" viewBox="0 0 22 22">
  <metadata><?xpacket begin="﻿" id="W5M0MpCehiHzreSzNTczkc9d"?>
<x:xmpmeta xmlns:x="adobe:ns:meta/" x:xmptk="Adobe XMP Core 5.6-c138 79.159824, 2016/09/14-01:09:01        ">
   <rdf:RDF xmlns:rdf="http://www.w3.org/1999/02/22-rdf-syntax-ns#">
      <rdf:Description rdf:about=""/>
   </rdf:RDF>
</x:xmpmeta>
<?xpacket end="w"?></metadata>
<defs>
    <style>
      .cls-1 {
        fill: #6cabff;
        fill-rule: evenodd;
        filter: url(#filter);
      }
    </style>
    <filter id="filter" x="1414" y="411" width="22" height="22" filterUnits="userSpaceOnUse">
      <feFlood result="flood" flood-color="#515974"/>
      <feComposite result="composite" operator="in" in2="SourceGraphic"/>
      <feBlend result="blend" in2="SourceGraphic"/>
    </filter>
  </defs>
  <path id="问号_灰" data-name="问号 灰" class="cls-1" d="M1425,425.553a1.576,1.576,0,0,0-1.58,1.582,1.577,1.577,0,0,0,1.58,1.582,1.582,1.582,0,1,0,0-3.164h0Zm0,0-0.01-9.97a3.5,3.5,0,0,0-2.59.98,3.6,3.6,0,0,0-1.07,2.387c-0.02.83,1.74,0.657,1.8,0.248a3.078,3.078,0,0,1,.69-1.454,1.751,1.751,0,0,1,1.25-.477,1.646,1.646,0,0,1,1.23.457,1.487,1.487,0,0,1,.46,1.1,1.433,1.433,0,0,1-.26.848,8.816,8.816,0,0,1-1.02,1.028,4.74,4.74,0,0,0-1.14,1.412,3.881,3.881,0,0,0-.29,1.6c0,0.061,0,.237.01,0.525h1.78a3.509,3.509,0,0,1,.13-1.263,3.312,3.312,0,0,1,.77-0.934,8.449,8.449,0,0,0,1.56-1.772,2.72,2.72,0,0,0,.37-1.381,3.147,3.147,0,0,0-1-2.312,3.626,3.626,0,0,0-2.68-.993h0Zm0,0M1425,411a11,11,0,1,0,11,11,11.016,11.016,0,0,0-11-11h0Zm-0.01,20.6a9.615,9.615,0,1,1,9.62-9.614,9.623,9.623,0,0,1-9.62,9.614h0Zm0,0" transform="translate(-1414 -411)"/>
</svg>