<?xml version="1.0" standalone="no"?><!DOCTYPE svg PUBLIC "-//W3C//DTD SVG 1.1//EN" "http://www.w3.org/Graphics/SVG/1.1/DTD/svg11.dtd"><svg class="icon" width="14px" height="14px" viewBox="0 0 1024 1024" version="1.1" xmlns="http://www.w3.org/2000/svg">
<path style="fill:#fff" d="M480 480H192C102.4 480 32 409.6 32 320V192C32 102.4 102.4 32 192 32h128C409.6 32 480 102.4 480 192v288zM192 96c-51.2 0-96 44.8-96 96v128c0 51.2 44.8 96 96 96h224V192c0-51.2-44.8-96-96-96H192zM320 992H192C102.4 992 32 921.6 32 832v-128C32 614.4 102.4 544 192 544h288V832c0 89.6-70.4 160-160 160z m-128-384c-51.2 0-96 44.8-96 96v128c0 51.2 44.8 96 96 96h128c51.2 0 96-44.8 96-96V608H192zM832 480H544V192C544 102.4 614.4 32 704 32h128c89.6 0 160 70.4 160 160v128c0 89.6-70.4 160-160 160z m-224-64H832c51.2 0 96-44.8 96-96V192c0-51.2-44.8-96-96-96h-128c-51.2 0-96 44.8-96 96v224zM832 992h-128c-89.6 0-160-70.4-160-160V544H832c89.6 0 160 70.4 160 160v128c0 89.6-70.4 160-160 160z m-224-384V832c0 51.2 44.8 96 96 96h128c51.2 0 96-44.8 96-96v-128c0-51.2-44.8-96-96-96H608z" /></svg>