<?xml version="1.0" encoding="utf-8"?>
<!-- Generator: Adobe Illustrator 21.0.0, SVG Export Plug-In . SVG Version: 6.00 Build 0)  -->
<svg version="1.1" id="图层_1" xmlns="http://www.w3.org/2000/svg" xmlns:xlink="http://www.w3.org/1999/xlink" x="0px" y="0px"
	 viewBox="0 0 615 681.9" style="enable-background:new 0 0 615 681.9;" xml:space="preserve">
<style type="text/css">
	.st0{clip-path:url(#SVGID_2_);fill:#A3A4B8;}
</style>
<g>
	<g>
		<defs>
			<rect id="SVGID_1_" x="0.1" y="0" width="614.9" height="681.8"/>
		</defs>
		<clipPath id="SVGID_2_">
			<use xlink:href="#SVGID_1_"  style="overflow:visible;"/>
		</clipPath>
		<path class="st0" d="M477.9,680.9H113.7C84,681.4,55.3,670,34,649.3c-21.3-20.7-33.5-49-34-78.7V130.3c0.4-29.7,12.7-58,34-78.7
			c21.3-20.7,50-32,79.7-31.6h321.2c8.5-1.1,16.9,2.9,21.5,10.1c4.6,7.3,4.6,16.5,0,23.8c-4.6,7.3-13,11.2-21.5,10.1H113.7
			c-36.9,0-67.2,29.3-68.3,66.2v440.3c1.1,36.9,31.3,66.2,68.3,66.2h364.2c36.9,0,67.2-29.3,68.3-66.2V163.4
			c0.1-6,2.6-11.7,6.8-15.8c4.3-4.2,10.1-6.5,16-6.4c5.9-0.1,11.7,2.2,15.9,6.4c4.2,4.2,6.6,9.9,6.6,15.8v407.2
			c-0.4,29.7-12.7,58-34,78.7C536.2,670,507.6,681.4,477.9,680.9L477.9,680.9z M318.5,262.4H181.9c-8.5,1.1-16.9-2.9-21.5-10.1
			c-4.6-7.3-4.6-16.5,0-23.8c4.6-7.3,13-11.2,21.5-10.1h136.5c8.5-1.1,16.9,2.9,21.5,10.1c4.6,7.2,4.6,16.5,0,23.8
			C335.4,259.5,327,263.5,318.5,262.4L318.5,262.4z M409.6,394.5H181.9c-8.5,1.1-16.9-2.9-21.5-10.1c-4.6-7.2-4.6-16.5,0-23.8
			c4.6-7.3,13-11.2,21.5-10.1h227.7c8.5-1.1,16.9,2.9,21.5,10.1c4.6,7.3,4.6,16.5,0,23.8C426.5,391.6,418.1,395.6,409.6,394.5
			L409.6,394.5z M409.6,526.6H181.9c-8.5,1.1-16.9-2.9-21.5-10.1c-4.6-7.3-4.6-16.5,0-23.8c4.6-7.3,13-11.2,21.5-10.1h227.7
			c8.5-1.1,16.9,2.9,21.5,10.1c4.6,7.2,4.6,16.5,0,23.8C426.5,523.7,418.1,527.7,409.6,526.6L409.6,526.6z M403.8,223.5
			c-11.7,0.2-21.5-8.8-22.2-20.5c0-5.7,2.4-11.1,6.5-15L575.5,6.4c9-8.6,23.1-8.6,32.1,0c4.4,4,7,9.7,7,15.7c0,6-2.5,11.7-7,15.7
			L419.8,218.4C415.3,222.1,409.6,223.9,403.8,223.5L403.8,223.5z M403.8,223.5"/>
	</g>
</g>
</svg>
