<?xml version="1.0" encoding="utf-8"?>
<!-- Generator: Adobe Illustrator 16.0.0, SVG Export Plug-In . SVG Version: 6.00 Build 0)  -->
<!DOCTYPE svg PUBLIC "-//W3C//DTD SVG 1.1//EN" "http://www.w3.org/Graphics/SVG/1.1/DTD/svg11.dtd">
<svg version="1.1" id="图层_1" xmlns="http://www.w3.org/2000/svg" xmlns:xlink="http://www.w3.org/1999/xlink" x="0px" y="0px"
	 width="100px" height="42px" viewBox="0 0 447.4 186.2" style="enable-background:new 0 0 447.4 186.2;" xml:space="preserve"
	>
<g>
	<circle style="fill:#e4ebf7;" cx="405.5" cy="140.1" r="4.2"/>
	<g>
		<path style="fill:#FFFFFF;" d="M393.7,52c0,2.3-1.7,4.2-3.8,4.2h-34.1c-2.1,0-3.8-1.9-3.8-4.2l0,0c0-2.3,1.7-4.2,3.8-4.2H390
			C392.1,47.9,393.7,49.7,393.7,52L393.7,52z"/>
		<path style="fill:#FFFFFF;" d="M375.5,64.7c1.6,1.6,1.8,4.1,0.3,5.6L359,87.1c-1.5,1.5-4,1.4-5.6-0.3l0,0
			c-1.6-1.6-1.8-4.1-0.3-5.6l16.8-16.8C371.3,62.9,373.8,63.1,375.5,64.7L375.5,64.7z"/>
		<path style="fill:#FFFFFF;" d="M393.7,66.3c0,2.3-1.7,4.2-3.8,4.2h-40.4c-2.1,0-3.8-1.9-3.8-4.2l0,0c0-2.3,1.7-4.2,3.8-4.2H390
			C392.1,62.1,393.7,64,393.7,66.3L393.7,66.3z"/>
		<path style="fill:#FFFFFF;" d="M358.8,55c-1.6,1.6-4.3,1.6-5.9,0l-5.9-5.9c-1.6-1.6-1.6-4.3,0-5.9l0,0c1.6-1.6,4.3-1.6,5.9,0
			l5.9,5.9C360.4,50.7,360.4,53.4,358.8,55L358.8,55z"/>
		<path style="fill:#FFFFFF;" d="M393.7,81.3c0,2.3-1.9,4.2-4.2,4.2l-8.3,0c-2.3,0-4.2-1.9-4.2-4.2l0,0c0-2.3,1.9-4.2,4.2-4.2l8.3,0
			C391.9,77.1,393.7,79,393.7,81.3L393.7,81.3z"/>
		<path style="fill:#FFFFFF;" d="M439.1,69.8c0,4-3.3,7.3-7.3,7.3H412c-4,0-7.3-3.3-7.3-7.3v-8.3c0-4,3.3-7.3,7.3-7.3h14.1v-8.3H412
			c-8.6,0-15.6,7-15.6,15.6v8.3c0,8.6,7,15.6,15.6,15.6h19.8c8.6,0,15.6-7,15.6-15.6v-3.5h-8.3V69.8z"/>
		<rect x="423.1" y="45.8" style="fill:#FFFFFF;" width="24.4" height="8.3"/>
		<rect x="439" y="45.8" style="fill:#FFFFFF;" width="8.3" height="21"/>
		<path style="fill:#FFFFFF;" d="M363,91.1c-9.8,0-17.7,7.9-17.7,17.7v17.7c0,9.8,7.9,17.7,17.7,17.7h16v-8.3h-16
			c-5.2,0-9.4-4.2-9.4-9.4v-17.7c0-5.2,4.2-9.4,9.4-9.4h63.8v-8.3H363z"/>
		<path style="fill:#FFFFFF;" d="M439.1,126.5c0,5.2-4.2,9.4-9.4,9.4h-24.2v8.3h24.2c9.8,0,17.7-7.9,17.7-17.7v-17.7h-8.3V126.5z"/>
		<path style="fill:#FFFFFF;" d="M431.4,113.6c0,2.3-1.9,4.2-4.2,4.2h-14.6c-2.3,0-4.2-1.9-4.2-4.2l0,0c0-2.3,1.9-4.2,4.2-4.2h14.6
			C429.6,109.4,431.4,111.3,431.4,113.6L431.4,113.6z"/>
		<path style="fill:#FFFFFF;" d="M415.9,111.1c1.4,1.8,1.1,4.4-0.6,5.8l-33.8,26.5c-1.8,1.4-4.4,1.1-5.8-0.8l0,0
			c-1.4-1.8-1.1-4.4,0.6-5.8l33.8-26.5C411.8,108.9,414.4,109.2,415.9,111.1L415.9,111.1z"/>
		<rect x="423.1" y="91.1" style="fill:#FFFFFF;" width="24.4" height="8.3"/>
		<rect x="439.1" y="91.1" style="fill:#FFFFFF;" width="8.3" height="24.4"/>
		<g>
			<path style="fill:#FFFFFF;" d="M291.1,76.8c-2.9,0-5.2-2.4-5.2-5.5V48.9c0-3,2.3-5.5,5.2-5.5l0,0c2.9,0,5.2,2.4,5.2,5.5v22.4
				C296.3,74.3,294,76.8,291.1,76.8L291.1,76.8z"/>
			<path style="fill:#FFFFFF;" d="M252.2,144.2c-2.9,0-5.2-2.5-5.2-5.5V66.4c0-3,2.3-5.5,5.2-5.5l0,0c2.9,0,5.2,2.4,5.2,5.5v72.4
				C257.4,141.8,255.1,144.2,252.2,144.2L252.2,144.2z"/>
			<path style="fill:#FFFFFF;" d="M311.5,51.1c0-2.9,2.4-5.2,5.5-5.2h9.9c3,0,5.5,2.3,5.5,5.2l0,0c0,2.9-2.4,5.2-5.5,5.2h-9.9
				C313.9,56.4,311.5,54,311.5,51.1L311.5,51.1z"/>
			<path style="fill:#FFFFFF;" d="M270.4,71.4c0-2.9,2.4-5.2,5.5-5.2h53.6c3,0,5.5,2.3,5.5,5.2l0,0c0,2.9-2.4,5.2-5.5,5.2h-53.6
				C272.8,76.6,270.4,74.3,270.4,71.4L270.4,71.4z"/>
			<path style="fill:#FFFFFF;" d="M226.1,75.3c-1.3-2.6-0.2-5.8,2.5-7.1l35.6-18.4c2.7-1.4,5.9-0.4,7.2,2.1l0,0
				c1.3,2.6,0.2,5.8-2.5,7.1l-35.6,18.4C230.7,78.8,227.4,77.9,226.1,75.3L226.1,75.3z"/>
			<path style="fill:#FFFFFF;" d="M280.3,144.2c-2.9,0-5.2-2.5-5.2-5.5v-28.6c0-3,2.3-5.5,5.2-5.5l0,0c2.9,0,5.2,2.5,5.2,5.5v28.6
				C285.5,141.8,283.1,144.2,280.3,144.2L280.3,144.2z"/>
			<path style="fill:#FFFFFF;" d="M285.9,68.4c0,0,0.3,9.8-1.9,16.9c-0.7,2.3-2.4,5.9-4.7,10.1c-3.3,6-4.2,11.9-4.2,14.9l10.4,0
				c0,0,0-6,3.1-12c2.5-4.8,4.6-8.4,5.8-12.6c1.7-5.9,1.9-10.3,1.9-17.3H285.9z"/>
			<path style="fill:#FFFFFF;" d="M324.4,144.2c2.9,0,5.2-2.5,5.2-5.5v-28.6c0-3-2.3-5.5-5.2-5.5l0,0c-2.9,0-5.2,2.5-5.2,5.5v28.6
				C319.2,141.8,321.6,144.2,324.4,144.2L324.4,144.2z"/>
			<path style="fill:#FFFFFF;" d="M318.8,68.4c0,0-0.3,9.8,1.9,16.9c0.7,2.3,2.4,5.9,4.7,10.1c3.3,6,4.2,11.9,4.2,14.9l-10.4,0
				c0,0,0-6-3.1-12c-2.5-4.8-4.6-8.4-5.8-12.6c-1.7-5.9-1.9-10.3-1.9-17.3H318.8z"/>
		</g>
	</g>
</g>
<g>
	<path style="fill:#FFFFFF;" d="M45.3,120.2c9.1-16.4,26.5-27.5,46.5-27.5c16.3,0,30.8,7.3,40.6,18.8c3.1-6.7,4.8-14.1,4.8-22V66.1
		c-13.4-7.6-28.8-11.9-45.3-11.9c-19.8,0-38.2,6.3-53.2,16.9v23.4C38.6,103.8,41,112.6,45.3,120.2z"/>
	<path style="fill:#FFFFFF;" d="M45.3,120.2c-4.2-7.6-6.7-16.4-6.7-25.8V71.1C22,82.9,9.4,100.2,3.6,120.3
		c5.8,20.1,18.4,37.3,35.1,49.1v-23.5C38.7,136.6,41.1,127.8,45.3,120.2z"/>
	<path style="fill:#FFFFFF;" d="M91.7,54.1c-2.3,0-4.5,0.1-6.8,0.2v4.9c2.2-0.4,4.5-0.7,6.8-0.9V54.1z"/>
	<g>
		<path style="fill:#FFFFFF;" d="M38.6,59.9V19.3H0v75.4c0,2.9,0.1,5.8,0.4,8.6C8.1,85.1,21.6,69.8,38.6,59.9z"/>
		<path style="fill:#FFFFFF;" d="M144.9,19.3v75.1c0,29.3-23.8,53.1-53.1,53.1c-16.1,0-30.5-7.2-40.3-18.5
			c-2.7,6.4-4.2,13.3-4.2,20.7v25c13.2,7.3,28.3,11.4,44.4,11.4c50.7,0,91.8-41,91.8-91.5V19.3H144.9z"/>
	</g>
	<circle style="fill:#FFFFFF;" cx="164.3" cy="19.3" r="19.3"/>
	<circle style="fill:#FFFFFF;" cx="19.3" cy="19.3" r="19.3"/>
</g>
</svg>
