<?xml version="1.0" encoding="utf-8"?>
<!-- Generator: Adobe Illustrator 16.0.0, SVG Export Plug-In . SVG Version: 6.00 Build 0)  -->
<!DOCTYPE svg PUBLIC "-//W3C//DTD SVG 1.1//EN" "http://www.w3.org/Graphics/SVG/1.1/DTD/svg11.dtd">
<svg version="1.1" id="图层_1" xmlns="http://www.w3.org/2000/svg" xmlns:xlink="http://www.w3.org/1999/xlink" x="0px" y="0px"
	 width="18px" height="19px" viewBox="0 0 668.7 716.8" style="enable-background:new 0 0 668.7 716.8;" xml:space="preserve"
	>
<g>
	<g>
		<path style="fill:#4F5772;" d="M538.8,716.8H77c-42.4,0-77-34.5-77-77V126.7c0-42.4,34.5-77,77-77h359.2
			c14.2,0,25.7,11.5,25.7,25.7c0,14.2-11.5,25.7-25.7,25.7H77c-14.1,0-25.7,11.5-25.7,25.6v513.1c0,14.2,11.5,25.6,25.7,25.6h461.8
			c14.2,0,25.6-11.5,25.6-25.6V229.3c0-14.2,11.5-25.7,25.7-25.7s25.7,11.5,25.7,25.7v410.5C615.8,682.3,581.2,716.8,538.8,716.8
			L538.8,716.8z M388,306.3c-6.6,0-13.1-2.5-18.1-7.5c-10-10-10-26.2,0-36.3l255-255c10-10,26.2-10,36.3,0c10,10,10,26.2,0,36.3
			l-255,255C401.2,303.8,394.6,306.3,388,306.3L388,306.3z M282.2,306.3H128.3c-14.2,0-25.7-11.5-25.7-25.7
			c0-14.2,11.5-25.7,25.7-25.7h153.9c14.2,0,25.7,11.5,25.7,25.7C307.9,294.8,296.4,306.3,282.2,306.3L282.2,306.3z M436.2,460.2
			H128.3c-14.2,0-25.7-11.5-25.7-25.7c0-14.2,11.5-25.7,25.7-25.7h307.9c14.2,0,25.6,11.5,25.6,25.7
			C461.8,448.8,450.4,460.2,436.2,460.2L436.2,460.2z M436.2,460.2"/>
	</g>
</g>
</svg>
