<?xml version="1.0" encoding="utf-8"?>
<!-- Generator: Adobe Illustrator 21.0.0, SVG Export Plug-In . SVG Version: 6.00 Build 0)  -->
<svg version="1.1" id="图层_1" xmlns="http://www.w3.org/2000/svg" xmlns:xlink="http://www.w3.org/1999/xlink" x="0px" y="0px"
	 viewBox="0 0 650.9 651.8" style="enable-background:new 0 0 650.9 651.8;" xml:space="preserve">
<style type="text/css">
	.st0{clip-path:url(#SVGID_2_);fill:#A3A4B8;}
	.st1{fill:#A3A4B8;}
</style>
<g>
	<g>
		<defs>
			<rect id="SVGID_1_" width="650.9" height="651.8"/>
		</defs>
		<clipPath id="SVGID_2_">
			<use xlink:href="#SVGID_1_"  style="overflow:visible;"/>
		</clipPath>
		<path class="st0" d="M26,452.8c16.4,38.7,39.8,73.5,69.7,103.4c29.9,29.9,64.7,53.3,103.4,69.7c40.1,17,82.7,25.5,126.6,25.5
			c43.9,0,86.5-8.6,126.6-25.5c38.7-16.4,73.5-39.8,103.4-69.7c29.9-29.9,53.3-64.7,69.7-103.4c17-40.1,25.5-82.7,25.5-126.6
			c0-43.9-8.6-86.5-25.5-126.6c-16.4-38.7-39.8-73.5-69.7-103.4c-29.9-29.9-64.7-53.3-103.4-69.7C412.3,9.5,369.6,1,325.7,1
			c-43.9,0-86.5,8.6-126.6,25.5c-38.7,16.4-73.5,39.8-103.4,69.7C65.8,126.1,42.4,160.9,26,199.6C9,239.7,0.5,282.3,0.5,326.2
			C0.5,370.1,9.1,412.7,26,452.8L26,452.8z M325.7,47.6c153.7,0,278.7,125,278.7,278.6c0,153.7-125,278.6-278.7,278.6
			c-153.7,0-278.6-125-278.6-278.6C47.1,172.6,172.1,47.6,325.7,47.6L325.7,47.6z M325.7,47.6"/>
	</g>
	<path class="st1" d="M325.7,495.2c15.5,0,28.2-12.7,28.2-28.2V274.9c0-15.5-12.6-28.2-28.2-28.2c-15.4,0-28.2,12.6-28.2,28.2v192.2
		C297.6,482.5,310.3,495.2,325.7,495.2L325.7,495.2z M325.7,216.9c15.5,0,28.2-12.7,28.2-28.2c0-15.4-12.6-28.2-28.2-28.2
		c-15.4,0-28.2,12.7-28.2,28.2C297.6,204.2,310.3,216.9,325.7,216.9L325.7,216.9z M325.7,216.9"/>
</g>
</svg>
