<?xml version="1.0" encoding="utf-8"?>
<!-- Generator: Adobe Illustrator 22.1.0, SVG Export Plug-In . SVG Version: 6.00 Build 0)  -->
<svg version="1.1" id="图层_1" xmlns="http://www.w3.org/2000/svg" xmlns:xlink="http://www.w3.org/1999/xlink" x="0px" y="0px"
	 viewBox="0 0 1000 1000" style="enable-background:new 0 0 1000 1000;" xml:space="preserve">
<style type="text/css">
	.st0{clip-path:url(#SVGID_2_);fill:#E1E7F0;}
	.st1{clip-path:url(#SVGID_2_);fill:#FFFFFF;}
	.st2{clip-path:url(#SVGID_4_);fill:#E1E7F0;}
	.st3{fill:#515974;}
</style>
<g>
	<g>
		<g>
			<g>
				<defs>
					<rect id="SVGID_1_" x="64.1" y="86.6" width="871.8" height="872.9"/>
				</defs>
				<clipPath id="SVGID_2_">
					<use xlink:href="#SVGID_1_"  style="overflow:visible;"/>
				</clipPath>
				<path id="XMLID_2_" class="st0" d="M499.8,87.1c-240.7,0-435.7,195.1-435.7,435.7c0,240.4,195.1,435.6,435.7,435.6
					c240.5,0,435.7-195.2,435.7-435.6C935.5,282.1,740.3,87.1,499.8,87.1L499.8,87.1z"/>
				<path id="XMLID_1_" class="st1" d="M499.8,87.1c-240.7,0-435.7,195.1-435.7,435.7c0,240.4,195.1,435.6,435.7,435.6
					c240.5,0,435.7-195.2,435.7-435.6C935.5,282.1,740.3,87.1,499.8,87.1L499.8,87.1z"/>
			</g>
		</g>
	</g>
</g>
<g>
	<g>
		<g>
			<g>
				<defs>
					<rect id="SVGID_3_" x="64.1" y="86.6" width="871.8" height="872.9"/>
				</defs>
				<clipPath id="SVGID_4_">
					<use xlink:href="#SVGID_3_"  style="overflow:visible;"/>
				</clipPath>
				<path id="XMLID_4_" class="st2" d="M499.8,87.1c-240.7,0-435.7,195.1-435.7,435.7c0,240.4,195.1,435.6,435.7,435.6
					c240.5,0,435.7-195.2,435.7-435.6C935.5,282.1,740.3,87.1,499.8,87.1L499.8,87.1z M495.8,923.1c-219.8,0-397.9-178.1-397.9-398
					s178.1-397.9,397.9-397.9c220,0,398,178,398,397.9C893.8,744.8,715.8,923.1,495.8,923.1L495.8,923.1z"/>
				<path id="XMLID_3_" class="st2" d="M499.8,87.1c-240.7,0-435.7,195.1-435.7,435.7c0,240.4,195.1,435.6,435.7,435.6
					c240.5,0,435.7-195.2,435.7-435.6C935.5,282.1,740.3,87.1,499.8,87.1L499.8,87.1z M495.8,923.1c-219.8,0-397.9-178.1-397.9-398
					s178.1-397.9,397.9-397.9c220,0,398,178,398,397.9C893.8,744.8,715.8,923.1,495.8,923.1L495.8,923.1z"/>
			</g>
		</g>
	</g>
</g>
<path class="st3" d="M596.2,653.2L369.9,427c-4.7-4.7-4.7-12.3,0-17l12.8-12.8c4.7-4.7,12.3-4.7,17,0L626,623.5
	c4.7,4.7,4.7,12.3,0,17l-12.8,12.8C608.5,657.9,600.9,657.9,596.2,653.2z"/>
<path class="st3" d="M369.9,619.3L596.2,393c4.7-4.7,12.3-4.7,17,0l17,17c4.7,4.7,4.7,12.3,0,17L403.9,653.2c-4.7,4.7-12.3,4.7-17,0
	l-17-17C365.3,631.6,365.3,624,369.9,619.3z"/>
</svg>
