<?xml version="1.0" encoding="utf-8"?>
<!-- Generator: Adobe Illustrator 16.0.0, SVG Export Plug-In . SVG Version: 6.00 Build 0)  -->
<!DOCTYPE svg PUBLIC "-//W3C//DTD SVG 1.1//EN" "http://www.w3.org/Graphics/SVG/1.1/DTD/svg11.dtd">
<svg version="1.1" id="图层_1" xmlns="http://www.w3.org/2000/svg" xmlns:xlink="http://www.w3.org/1999/xlink" x="0px" y="0px"
	 width="25px" height="19px" viewBox="0 0 705.9 523" style="enable-background:new 0 0 705.9 523;" fill="#515974" xml:space="preserve">
<g>
	<g>
		<defs>
			<rect id="SVGID_1_" width="705.8" height="523"/>
		</defs>
		<clipPath id="SVGID_2_">
			<use xlink:href="#SVGID_1_"  style="overflow:visible;"/>
		</clipPath>
		<path style="clip-path:url(#SVGID_2_);" d="M352.9,522C209.5,522,75.7,444.8,3.8,320.5c-7.8-13.5-3.2-30.8,10.3-38.6
			c13.5-7.8,30.8-3.2,38.6,10.3c61.9,106.9,176.9,173.3,300.3,173.3c123.4,0,238.5-66.4,300.3-173.3c7.8-13.5,25.1-18.1,38.6-10.3
			c13.5,7.8,18.1,25,10.3,38.6C630.2,444.8,496.4,522,352.9,522L352.9,522z M677.7,244.3c-9.7,0-19.2-5.1-24.5-14.1
			C591.3,123.3,476.3,56.9,352.9,56.9c-123.4,0-238.4,66.4-300.3,173.3c-7.8,13.5-25.1,18.1-38.6,10.3C0.6,232.8-4,215.5,3.8,202
			C75.7,77.6,209.5,0.5,352.9,0.5c143.4,0,277.3,77.2,349.1,201.5c7.8,13.5,3.2,30.8-10.3,38.6C687.3,243.1,682.4,244.3,677.7,244.3
			L677.7,244.3z M677.7,244.3"/>
	</g>
	<path d="M352.9,415.7c-84.2,0-152.7-68.5-152.7-152.7c0-84.2,68.5-152.7,152.7-152.7c84.2,0,152.7,68.5,152.7,152.7
		C505.6,347.1,437.2,415.7,352.9,415.7L352.9,415.7z M352.9,166.7c-53,0-96.3,43.1-96.3,96.3c0,53.1,43.1,96.3,96.3,96.3
		c53.1,0,96.3-43.2,96.3-96.3C449.2,209.9,406,166.7,352.9,166.7L352.9,166.7z M352.9,166.7"/>
</g>
</svg>
