<?xml version="1.0" encoding="utf-8"?>
<!-- Generator: Adobe Illustrator 16.0.0, SVG Export Plug-In . SVG Version: 6.00 Build 0)  -->
<!DOCTYPE svg PUBLIC "-//W3C//DTD SVG 1.1//EN" "http://www.w3.org/Graphics/SVG/1.1/DTD/svg11.dtd">
<svg version="1.1" id="图层_1" xmlns="http://www.w3.org/2000/svg" xmlns:xlink="http://www.w3.org/1999/xlink" x="0px" y="0px"
	 width="24px" height="24px" viewBox="0 0 651 651.8" style="enable-background:new 0 0 651 651.8;" fill="#a5a6bb" xml:space="preserve">
<g>
	<g>
		<defs>
			<rect id="SVGID_1_" x="0.1" width="650.9" height="651.8"/>
		</defs>
		<clipPath id="SVGID_2_">
			<use xlink:href="#SVGID_1_"  style="overflow:visible;"/>
		</clipPath>
		<path style="clip-path:url(#SVGID_2_);" d="M625,199c-16.4-38.7-39.8-73.5-69.7-103.4c-29.9-29.9-64.7-53.3-103.4-69.7
			c-40.1-17-82.7-25.5-126.6-25.5c-43.9,0-86.5,8.6-126.6,25.5c-38.7,16.4-73.5,39.8-103.4,69.7C65.3,125.5,41.9,160.3,25.5,199
			C8.5,239.1,0,281.7,0,325.6c0,43.9,8.6,86.5,25.5,126.6c16.4,38.7,39.8,73.5,69.7,103.4c29.9,29.9,64.7,53.3,103.4,69.7
			c40.1,17,82.7,25.5,126.6,25.5c43.9,0,86.5-8.6,126.6-25.5c38.7-16.4,73.5-39.8,103.4-69.7c29.9-29.9,53.3-64.7,69.7-103.4
			c17-40.1,25.5-82.7,25.5-126.6C650.5,281.7,641.9,239.1,625,199L625,199z M325.3,604.3c-153.7,0-278.7-125-278.7-278.6
			C46.6,171.9,171.6,47,325.3,47c153.7,0,278.6,125,278.6,278.6C603.9,479.2,478.9,604.3,325.3,604.3L325.3,604.3z M325.3,604.3"/>
	</g>
	<path d="M325.3,156.6c-15.5,0-28.2,12.7-28.2,28.2V377c0,15.5,12.6,28.2,28.2,28.2c15.4,0,28.2-12.6,28.2-28.2V184.8
		C353.4,169.3,340.7,156.6,325.3,156.6L325.3,156.6z M325.3,435c-15.5,0-28.2,12.7-28.2,28.2c0,15.4,12.6,28.2,28.2,28.2
		c15.4,0,28.2-12.7,28.2-28.2C353.4,447.7,340.7,435,325.3,435L325.3,435z M325.3,435"/>
</g>
</svg>
